<svg width="201" height="201" viewBox="0 0 201 201" fill="none" xmlns="http://www.w3.org/2000/svg">
<path d="M161.141 92.7796L150.846 82.8531C141.205 75.4158 135.837 71.3415 129.891 73.2943C145.883 84.9578 148.741 90.8517 146.802 100.5C131.361 78.809 109.67 80.6472 99.3758 71.8237C101.565 83.3995 103.313 89.9 111.876 101.603C100.087 97.1198 94.8432 91.2603 89.4494 71.0884C86.5082 93.8825 80.1204 100.384 61.1405 114.471C60.2714 104.749 59.4018 101.697 57.4641 98.6619C58.0827 115.262 57.8133 122.318 54.1552 123.294C54.0211 118.06 53.1435 114.63 48.6405 110.059C51.3233 125.936 51.7057 136.812 46.067 150.132C45.3317 135.059 39.0817 127.706 26.2141 126.235C22.1699 125.773 17.8173 127.026 15.1066 131.174C14.9849 131.36 14.8666 131.552 14.7518 131.75C13.7032 133.557 12.945 135.858 12.6111 138.735V147.927C12.6111 156.382 26.9494 168.147 44.2288 166.309C48.9081 176.663 52.6847 184.691 62.6111 188.735C79.5229 196.456 110.773 199.722 139.449 195.721C152.317 193.925 161.508 187.632 165.92 172.927C172.1 150.48 174.484 137.713 173.79 114.103C171.354 104.705 168.081 99.2087 161.141 92.7796Z" fill="#FFAD8B"/>
<path fill-rule="evenodd" clip-rule="evenodd" d="M102.691 75.4343C103.836 76.5728 105.26 77.647 108.092 78.5413C108.204 78.5766 108.319 78.613 108.438 78.6505C112.021 79.7809 118.707 81.8902 125.494 85.0121C131.387 87.723 137.574 91.2924 141.851 95.8123L142.949 92.8841L146.392 94.175L144.186 100.057C143.948 100.691 143.381 101.143 142.71 101.234C142.039 101.324 141.373 101.038 140.976 100.49C137.408 95.563 130.795 91.4975 123.958 88.3521C117.385 85.3286 110.884 83.2776 107.307 82.1488C107.197 82.114 107.089 82.0802 106.985 82.0472C103.567 80.9678 101.64 79.5738 100.099 78.0413C99.6071 77.5523 99.1292 77.0206 98.6895 76.5314C98.4977 76.3181 98.3133 76.1128 98.138 75.9227C97.527 75.2598 96.9031 74.6348 96.1183 74.0269L98.3698 71.1205C99.3819 71.9045 100.162 72.6939 100.841 73.4312C101.085 73.6959 101.304 73.9397 101.512 74.1714C101.913 74.6172 102.272 75.0177 102.691 75.4343ZM145.474 84.3091C142.043 81.371 138.549 78.3793 135.331 75.3913L137.833 72.6972C141.013 75.6495 144.386 78.5375 147.765 81.4298C149.845 83.2106 151.928 84.9931 153.968 86.7931C159.243 91.4484 164.168 96.1672 167.501 100.932C174.16 110.454 175.179 124.575 174.08 145.83L170.408 145.64C171.515 124.249 170.328 111.391 164.488 103.039C161.427 98.6625 156.794 94.1902 151.535 89.5498C149.587 87.8307 147.542 86.0796 145.474 84.3091ZM92.0588 83.0677L91.3554 74.6269L87.6916 74.9322L88.4096 83.5479C87.5224 89.5087 84.0661 94.6822 78.793 100.107C75.2631 103.738 71.0706 107.34 66.4553 111.305C64.7623 112.76 63.0124 114.264 61.2174 115.835L60.0661 110.769L56.481 111.584L58.1634 118.987L54.597 125.406V115.956H50.9206V132.5C50.9206 133.338 51.4868 134.069 52.2977 134.28C53.1086 134.49 53.9589 134.125 54.3657 133.393L61.5673 120.43C63.9712 118.29 66.3595 116.238 68.676 114.247C73.3802 110.203 77.7883 106.415 81.4292 102.669C85.6927 98.2835 89.1109 93.7636 90.9147 88.6353C95.1274 96.1374 99.2647 101.78 107.786 104.125C108.401 104.295 109.059 104.133 109.526 103.698C109.993 103.264 110.201 102.618 110.076 101.993L108.605 94.6396L105 95.3606L105.837 99.5447C99.6688 96.8021 96.5626 91.4059 92.0588 83.0677ZM14.23 131.795C15.3495 129.183 16.9692 127.228 19.1795 125.248L21.6321 127.987C19.6793 129.736 18.4537 131.273 17.6092 133.244C16.7447 135.261 16.2232 137.862 15.9094 141.836C15.419 148.048 18.3315 153.181 23.6171 157.078C28.9496 161.009 36.6218 163.599 45.2287 164.495C45.7446 164.549 46.2138 164.818 46.5206 165.237C54.3765 175.949 62.8714 182.327 76.0676 186.617C95.6146 191.676 114.847 192.053 138.591 189.496C147.552 188.531 157.69 183.295 164.755 170.578L167.969 172.363C164.825 178.022 161.081 182.359 157.055 185.579L157.993 187.453L141.816 195.541C141.598 195.651 141.36 195.715 141.116 195.731L119.058 197.202C119.038 197.203 119.019 197.204 119 197.205C118.978 197.206 118.957 197.206 118.935 197.206H94.3029C94.1558 197.206 94.0093 197.188 93.8664 197.153L77.3223 193.109C77.2554 193.093 77.1895 193.073 77.1249 193.049L59.1102 186.432C58.8955 186.353 58.6974 186.234 58.5261 186.083L48.9673 177.627L50.6356 175.741C48.3343 173.444 46.1572 170.896 44.0386 168.063C35.3097 167.045 27.2679 164.337 21.4354 160.037C15.3764 155.57 11.6318 149.305 12.2443 141.547C12.5692 137.432 13.1305 134.361 14.23 131.795Z" fill="#DB8966"/>
<path fill-rule="evenodd" clip-rule="evenodd" d="M47.0577 128.696C47.4538 128.347 47.9808 128.185 48.5045 128.252L81.7357 132.472C101.075 130.166 111.892 129.672 128.859 133.196C133.709 132.571 136.742 132.275 142.044 133.196C153.613 131.421 161.532 130.646 171.868 131.016L171.737 134.69C162.066 134.344 154.585 135.023 143.779 136.651C143.541 141.133 143.373 144.738 143.503 147.685C143.648 150.963 144.158 153.138 145.132 154.653C146.055 156.089 147.553 157.168 150.254 157.893C153.011 158.632 156.856 158.956 162.243 158.956C165.206 158.956 167.646 158.787 169.662 158.451L170.266 162.078C167.987 162.457 165.332 162.632 162.243 162.632C156.785 162.632 152.542 162.313 149.302 161.444C146.006 160.56 143.597 159.065 142.039 156.641C140.531 154.296 139.984 151.324 139.83 147.847C139.693 144.74 139.866 141 140.099 136.609C136.528 136.097 134.112 136.251 130.57 136.686C130.526 138.083 130.497 139.439 130.468 140.737C130.417 143.096 130.37 145.267 130.249 147.165C130.033 150.538 129.571 153.553 128.246 156.013C126.864 158.58 124.65 160.357 121.359 161.463C118.15 162.541 113.868 163 108.199 163H106.223C106.104 163.002 105.985 163.005 105.866 163.007L105.749 163.01C104.985 163.025 104.195 163.039 103.332 162.998C97.774 162.733 93.498 162.249 90.2346 161.378C86.9519 160.502 84.5246 159.189 82.8624 157.147C81.2112 155.119 80.5086 152.605 80.1841 149.743C79.9073 147.302 79.8895 144.415 79.8899 141.116L48.0699 137.58C47.1389 137.477 46.4347 136.69 46.4347 135.753V130.075C46.4347 129.547 46.6616 129.045 47.0577 128.696ZM83.567 139.499C83.567 139.765 83.5669 140.027 83.5668 140.285C83.5654 143.993 83.5643 146.923 83.8372 149.329C84.1271 151.886 84.7042 153.586 85.7137 154.826C86.7121 156.053 88.3267 157.064 91.1826 157.826C94.0502 158.591 97.9964 159.061 103.464 159.324H106.186C106.801 159.312 107.473 159.304 108.223 159.324C113.755 159.322 117.554 158.863 120.189 157.978C122.746 157.119 124.14 155.885 125.009 154.27C125.936 152.548 126.37 150.21 126.58 146.93C126.699 145.065 126.742 143.055 126.789 140.797C126.817 139.473 126.847 138.063 126.896 136.548C111.576 133.49 101.379 133.872 83.5772 135.956C83.5775 135.994 83.5779 136.031 83.5782 136.069C83.5895 137.237 83.6007 138.405 83.567 139.499ZM79.9 135.944L50.1111 132.162V134.108L79.9124 137.419C79.9106 137.025 79.9067 136.624 79.9026 136.211C79.9017 136.123 79.9009 136.034 79.9 135.944Z" fill="#DB8966"/>
<path d="M183.199 136.162C183.228 134.658 183.199 133.801 183.199 132.118C179.569 131.84 176.315 131.491 173.273 131.382V135.427L183.199 136.162Z" fill="black"/>
<path d="M83.1994 132.853L36.8758 126.971V129.544L41.2876 133.343L83.1994 138C83.2503 136.385 83.1994 134.67 83.1994 132.853Z" fill="black"/>
<path fill-rule="evenodd" clip-rule="evenodd" d="M35.6606 125.591C36.0567 125.242 36.5837 125.081 37.1074 125.147L83.2063 131.001C102.546 128.695 113.363 128.201 130.33 131.726C135.18 131.1 138.213 130.804 143.514 131.725C155.083 129.95 163.003 129.176 173.339 129.545C175.46 129.621 177.708 129.814 180.059 130.014C181.132 130.106 182.226 130.2 183.34 130.285C184.298 130.358 185.038 131.157 185.038 132.118C185.038 132.691 185.041 133.178 185.045 133.635C185.051 134.474 185.056 135.211 185.037 136.197C184.958 140.313 184.872 143.934 184.48 146.999C184.088 150.064 183.369 152.769 181.896 154.973C178.843 159.539 173.142 161.162 163.714 161.162C158.256 161.162 154.013 160.842 150.772 159.973C147.477 159.089 145.068 157.595 143.51 155.171C142.002 152.825 141.455 149.853 141.301 146.376C141.164 143.27 141.337 139.529 141.57 135.138C137.999 134.627 135.582 134.78 132.04 135.215C131.997 136.613 131.967 137.968 131.939 139.266C131.888 141.625 131.841 143.796 131.719 145.694C131.504 149.067 131.041 152.083 129.717 154.543C128.334 157.11 126.121 158.886 122.83 159.992C119.621 161.07 115.339 161.53 109.67 161.53H107.694C107.575 161.532 107.456 161.534 107.337 161.537L107.22 161.539C106.456 161.555 105.666 161.569 104.803 161.527C99.2446 161.262 94.9686 160.779 91.7051 159.908C88.4224 159.031 85.9952 157.719 84.333 155.677C82.6818 153.648 81.9792 151.134 81.6547 148.273C81.3779 145.831 81.3601 142.944 81.3605 139.645L41.0846 135.17C40.7163 135.129 40.3689 134.978 40.0881 134.736L35.6763 130.937C35.2708 130.588 35.0376 130.079 35.0376 129.544V126.971C35.0376 126.443 35.2645 125.94 35.6606 125.591ZM85.0376 138.029C85.0376 138.294 85.0375 138.556 85.0374 138.815C85.036 142.522 85.0349 145.452 85.3078 147.858C85.5977 150.415 86.1748 152.115 87.1843 153.356C88.1827 154.582 89.7972 155.593 92.6532 156.356C95.5208 157.121 99.467 157.59 104.935 157.853H107.657C108.272 157.841 108.943 157.834 109.694 157.853C115.226 157.852 119.024 157.392 121.659 156.507C124.216 155.648 125.61 154.415 126.48 152.8C127.407 151.078 127.841 148.739 128.05 145.46C128.169 143.595 128.212 141.585 128.26 139.326C128.288 138.002 128.318 136.593 128.366 135.077C113.047 132.019 102.849 132.402 85.0477 134.485C85.0481 134.523 85.0485 134.561 85.0488 134.598C85.06 135.767 85.0712 136.934 85.0376 138.029ZM145.249 135.18C145.011 139.662 144.843 143.267 144.974 146.214C145.119 149.493 145.628 151.668 146.602 153.183C147.526 154.619 149.023 155.698 151.725 156.422C154.481 157.162 158.327 157.485 163.714 157.485C173.036 157.485 176.917 155.805 178.84 152.93C179.854 151.413 180.471 149.362 180.833 146.532C181.143 144.107 181.251 141.253 181.326 137.866L173.137 137.26C172.177 137.189 171.435 136.389 171.435 135.427V133.167C162.598 132.961 155.387 133.653 145.249 135.18Z" fill="black"/>
<path fill-rule="evenodd" clip-rule="evenodd" d="M175.671 113.961C176.372 137.805 173.949 150.762 167.736 173.326C167.733 173.34 167.729 173.353 167.725 173.367C165.436 180.996 161.859 186.588 157.062 190.501C152.273 194.407 146.411 196.523 139.747 197.453C110.882 201.481 79.27 198.238 61.9261 190.335C51.672 186.142 47.5572 177.91 43.1355 168.166C34.6005 168.761 27.3458 166.236 21.898 162.544C16.2234 158.699 12.3803 153.494 11.1704 149.057C10.0506 144.952 10.3976 142.05 10.7463 139.135C10.7742 138.902 10.802 138.669 10.8292 138.435C10.995 137.007 11.4476 135.314 12.0008 133.761C12.5521 132.213 13.2529 130.664 13.9785 129.553C15.5513 127.147 17.5504 125.667 19.7821 124.889C21.9749 124.124 24.2848 124.071 26.4668 124.321C33.216 125.092 38.4931 127.444 42.145 131.816C45.7651 136.15 47.5693 142.211 47.9471 149.955L44.275 150.134C43.9174 142.804 42.229 137.652 39.3234 134.173C36.4496 130.733 32.1678 128.673 26.0494 127.974C24.1872 127.761 22.4822 127.84 20.9932 128.36C19.5433 128.866 18.194 129.823 17.0561 131.565C16.5497 132.34 15.9637 133.591 15.4642 134.994C14.9664 136.392 14.6041 137.8 14.4811 138.859C14.455 139.085 14.4287 139.306 14.4029 139.523C14.0595 142.42 13.7902 144.691 14.7173 148.09C15.6426 151.483 18.8243 156.02 23.9604 159.501C29.0423 162.944 35.9119 165.262 44.0783 164.393C44.8673 164.309 45.6212 164.741 45.9479 165.464C50.6644 175.9 54.1907 183.214 63.3487 186.945C63.3722 186.954 63.3955 186.964 63.4186 186.975C79.9056 194.502 110.771 197.784 139.239 193.812C145.444 192.946 150.611 191.018 154.738 187.652C158.852 184.297 162.074 179.396 164.197 172.33C170.341 150.015 172.683 137.437 171.997 114.069L175.671 113.961Z" fill="black"/>
<path d="M86.872 1.9657C87.4061 2.6727 87.3598 3.66004 86.762 4.31398L86.5086 4.59106C83.0914 8.32822 80.6772 10.9685 79.2625 13.8674C78.3017 15.8362 77.7837 17.9796 77.8853 20.7545C90.9084 6.88411 114.142 0.668444 134.734 10.6094C145.831 15.9669 152.076 18.5684 156.778 19.1683C161.213 19.7342 164.353 18.5235 169.378 15.473C169.945 15.1284 170.655 15.1166 171.233 15.4423C171.812 15.7679 172.17 16.3803 172.17 17.0443C172.17 21.3876 170.263 24.6883 166.813 27.9406C163.887 30.7 159.686 33.5751 154.317 37.1599C155.882 37.8259 157.711 38.2494 159.879 38.6446C160.499 38.7577 161.146 38.8682 161.816 38.9827C164.674 39.4709 167.953 40.0313 171.413 41.1716C180.153 44.0523 189.953 50.5647 199.878 68.3546C200.262 69.0422 200.165 69.8978 199.637 70.4821C199.109 71.0665 198.268 71.2499 197.545 70.9382C189.765 67.5841 184.367 66.0962 177.821 65.6906C181.567 71.6207 184.635 77.2791 186.48 83.7064C188.64 91.2281 189.092 99.6748 187.218 110.734C187.073 111.588 186.351 112.225 185.485 112.263C184.62 112.301 183.845 111.729 183.627 110.891C182.546 106.748 181.486 104.102 180.362 102.204C180.186 101.908 180.007 101.627 179.825 101.36C180.305 110.777 179.894 116.502 177.155 122.579C176.825 123.311 176.059 123.744 175.262 123.649C174.465 123.554 173.822 122.954 173.673 122.165C173.137 119.332 172.597 116.825 172.011 114.564C169.661 105.499 166.569 100.313 159.891 94.1282C159.882 94.1198 159.873 94.1113 159.865 94.1028L149.643 84.2467C144.814 80.5217 141.231 77.7868 138.138 76.1847C137.072 75.6328 136.096 75.2323 135.177 74.9785C140.781 79.371 144.475 83.071 146.649 86.7103C149.421 91.3517 149.634 95.7373 148.605 100.862C148.46 101.581 147.903 102.145 147.186 102.298C146.469 102.451 145.73 102.163 145.305 101.566C137.869 91.1201 128.947 86.3325 120.494 83.0501C118.37 82.2255 116.279 81.4973 114.236 80.7933L113.609 80.5775C111.791 79.9524 110.006 79.338 108.308 78.6959C106.111 77.8655 103.996 76.9661 102.055 75.8818C102.848 79.6194 103.696 82.8093 104.947 85.9937C106.654 90.3405 109.141 94.7521 113.359 100.518C113.84 101.175 113.831 102.07 113.338 102.717C112.844 103.365 111.983 103.611 111.222 103.321C105.142 101.009 100.541 98.2582 96.8015 93.3419C94.1452 89.85 91.983 85.3421 89.9665 79.2948C88.4517 86.6231 86.2497 92.1616 82.8185 97.0946C78.2865 103.61 71.7054 108.919 62.2361 115.947C61.7019 116.343 60.9953 116.42 60.3883 116.148C59.831 115.898 59.4376 115.39 59.3311 114.795C59.2913 115.153 59.2472 115.499 59.1988 115.834C58.6292 119.77 57.4505 122.17 55.5779 124.458C55.0914 125.053 54.2863 125.282 53.5595 125.033C52.8326 124.784 52.3373 124.109 52.3176 123.341C52.2665 121.35 52.1053 119.736 51.7043 118.264C53.1047 130.063 52.5102 139.627 47.7598 150.849C47.4255 151.639 46.5897 152.092 45.7454 151.942C44.9011 151.792 44.2727 151.079 44.2309 150.222C43.8734 142.893 42.185 137.74 39.2793 134.261C36.4055 130.821 32.1238 128.761 26.0053 128.062C22.4779 127.659 18.8884 128.747 16.6453 132.18C16.5417 132.338 16.4404 132.503 16.3416 132.673C15.9912 133.277 15.3291 133.63 14.6324 133.585C13.9358 133.539 13.325 133.103 13.0557 132.459C12.1696 130.339 11.2472 128.207 10.3292 126.085L10.3286 126.084L10.3286 126.084C8.81084 122.576 7.3049 119.095 5.9938 115.741C3.87734 110.328 2.16934 105.012 1.59361 99.9735C-0.0519345 85.5733 2.76208 73.1015 9.57137 63.2859C15.3388 54.9721 23.8848 48.6899 34.7317 44.7444C33.8234 44.7305 32.8436 44.7859 31.7845 44.9082C28.0729 45.337 23.6366 46.5564 18.303 48.2117C17.5281 48.4522 16.6872 48.1562 16.2338 47.4833C15.7803 46.8105 15.8217 45.92 16.3354 45.292C19.6309 41.2642 22.4747 37.8585 27.6199 35.8717C32.2432 34.0865 38.5536 33.504 48.5081 34.1263C47.9014 33.5746 46.929 32.9967 45.4524 32.4002C42.1291 31.0578 37.0013 29.9017 29.8793 28.4019C29.1551 28.2493 28.593 27.6774 28.4531 26.9506C28.3132 26.2239 28.6227 25.4841 29.2385 25.0736C36.6223 20.151 43.6751 17.9085 50.2299 18.6648C55.2984 19.2497 59.8641 21.603 63.8912 25.5447C64.354 21.5998 66.1124 17.7517 68.6968 14.2615C72.4746 9.15948 78.1235 4.65931 84.5831 1.4295C85.3756 1.03326 86.338 1.25871 86.872 1.9657Z" fill="black"/>
</svg>
