<svg width="512" height="512" viewBox="0 0 512 512" fill="none" xmlns="http://www.w3.org/2000/svg">
<path d="M431.226 331.47C431.288 328.288 431.226 326.475 431.226 322.912C423.543 322.324 416.656 321.586 410.219 321.356V329.914L431.226 331.47Z" fill="black"/>
<path d="M219.599 324.468L121.566 312.019V317.465L130.903 325.505L219.599 335.36C219.707 331.941 219.599 328.313 219.599 324.468Z" fill="black"/>
<path fill-rule="evenodd" clip-rule="evenodd" d="M118.994 309.1C119.833 308.362 120.948 308.019 122.056 308.16L219.614 320.548C260.541 315.668 283.432 314.623 319.34 322.082C329.604 320.758 336.022 320.132 347.241 322.081C371.725 318.325 388.484 316.685 410.358 317.468C414.846 317.629 419.605 318.035 424.579 318.461C426.851 318.655 429.167 318.853 431.522 319.033C433.55 319.188 435.116 320.878 435.116 322.912C435.116 324.125 435.123 325.155 435.131 326.122C435.144 327.897 435.155 329.458 435.115 331.545C434.947 340.255 434.765 347.919 433.935 354.404C433.106 360.891 431.586 366.615 428.467 371.279C422.007 380.943 409.942 384.377 389.99 384.377C378.439 384.377 369.46 383.701 362.601 381.861C355.627 379.991 350.53 376.828 347.232 371.698C344.041 366.734 342.883 360.444 342.557 353.087C342.267 346.512 342.633 338.597 343.126 329.304C335.57 328.221 330.455 328.546 322.96 329.466C322.867 332.424 322.805 335.292 322.745 338.04C322.637 343.031 322.537 347.626 322.28 351.643C321.824 358.781 320.845 365.162 318.042 370.369C315.117 375.801 310.433 379.561 303.468 381.901C296.676 384.183 287.614 385.155 275.618 385.155H271.435C271.183 385.16 270.932 385.165 270.68 385.17L270.433 385.175C268.815 385.208 267.144 385.238 265.318 385.15C253.555 384.588 244.506 383.566 237.599 381.722C230.652 379.868 225.516 377.09 221.998 372.768C218.504 368.475 217.017 363.156 216.33 357.099C215.744 351.933 215.706 345.824 215.707 338.842L130.473 329.372C129.693 329.285 128.958 328.965 128.364 328.453L119.028 320.413C118.169 319.674 117.676 318.598 117.676 317.465V312.019C117.676 310.902 118.156 309.839 118.994 309.1ZM223.489 335.421C223.489 335.983 223.489 336.538 223.489 337.084C223.486 344.93 223.483 351.131 224.061 356.223C224.674 361.634 225.896 365.232 228.032 367.857C230.145 370.453 233.562 372.592 239.606 374.205C245.674 375.825 254.026 376.819 265.596 377.374H271.357C272.659 377.35 274.08 377.333 275.669 377.374C287.375 377.372 295.414 376.399 300.99 374.526C306.401 372.708 309.352 370.097 311.192 366.68C313.154 363.036 314.072 358.087 314.515 351.147C314.768 347.2 314.858 342.946 314.959 338.167C315.019 335.365 315.082 332.382 315.184 329.175C282.764 322.703 261.184 323.513 223.511 327.922C223.511 328.002 223.512 328.082 223.513 328.161C223.537 330.634 223.56 333.104 223.489 335.421ZM350.913 329.393C350.41 338.877 350.054 346.507 350.33 352.743C350.637 359.682 351.716 364.285 353.776 367.49C355.73 370.53 358.9 372.813 364.617 374.346C370.45 375.911 378.588 376.596 389.99 376.596C409.717 376.596 417.931 373.041 421.999 366.955C424.145 363.745 425.452 359.404 426.218 353.417C426.874 348.283 427.102 342.244 427.261 335.077L409.931 333.794C407.9 333.643 406.328 331.951 406.328 329.914V325.132C387.627 324.697 372.367 326.161 350.913 329.393Z" fill="black"/>
<path fill-rule="evenodd" clip-rule="evenodd" d="M415.295 284.487C416.777 334.948 411.65 362.367 398.502 410.12C398.494 410.148 398.486 410.177 398.477 410.205C393.633 426.351 386.064 438.185 375.911 446.467C365.776 454.733 353.372 459.211 339.27 461.179C278.182 469.702 211.284 462.84 174.579 446.115C152.879 437.242 144.171 419.821 134.813 399.199C116.751 400.458 101.398 395.114 89.8692 387.302C77.8601 379.164 69.7271 368.148 67.1666 358.76C64.797 350.072 65.5313 343.932 66.2692 337.762C66.3281 337.269 66.3871 336.776 66.4445 336.281C66.7954 333.258 67.7533 329.675 68.9239 326.388C70.0907 323.112 71.5737 319.835 73.1095 317.485C76.4379 312.392 80.6685 309.261 85.3914 307.613C90.0318 305.994 94.9203 305.884 99.538 306.411C113.821 308.044 124.989 313.021 132.717 322.273C140.378 331.445 144.196 344.271 144.996 360.659L137.225 361.038C136.468 345.527 132.895 334.623 126.746 327.261C120.664 319.98 111.603 315.621 98.6545 314.141C94.7138 313.691 91.1054 313.86 87.9543 314.959C84.8859 316.03 82.0305 318.056 79.6224 321.741C78.5506 323.381 77.3106 326.03 76.2534 328.999C75.2001 331.956 74.4332 334.937 74.173 337.178C74.1177 337.655 74.0621 338.123 74.0075 338.584C73.2807 344.713 72.7108 349.519 74.6728 356.713C76.631 363.893 83.3643 373.495 94.2338 380.861C104.988 388.149 119.526 393.053 136.809 391.214C138.478 391.037 140.074 391.95 140.765 393.481C150.746 415.567 158.209 431.044 177.59 438.94C177.64 438.961 177.689 438.982 177.738 439.004C212.629 454.933 277.949 461.879 338.195 453.473C351.324 451.641 362.261 447.56 370.993 440.438C379.699 433.337 386.519 422.965 391.012 408.012C404.014 360.787 408.971 334.168 407.518 284.715L415.295 284.487Z" fill="black"/>
<path d="M227.372 47.4752C228.502 48.9714 228.404 51.0609 227.139 52.4448L226.602 53.0311L226.602 53.0313C219.371 60.94 214.262 66.5276 211.268 72.6624C209.234 76.8289 208.138 81.3648 208.353 87.2372C235.914 57.8839 285.082 44.7298 328.66 65.7676C352.145 77.1054 365.361 82.6109 375.31 83.8804C384.697 85.078 391.343 82.5159 401.976 76.0601C403.177 75.3309 404.678 75.3061 405.902 75.9952C407.127 76.6843 407.885 77.9803 407.885 79.3854C407.885 88.577 403.849 95.5622 396.549 102.445C390.355 108.285 381.465 114.369 370.104 121.956C373.415 123.365 377.285 124.261 381.874 125.098C383.186 125.337 384.555 125.571 385.972 125.813L385.974 125.813C392.02 126.846 398.961 128.032 406.282 130.445C424.778 136.542 445.519 150.324 466.523 187.972C467.335 189.427 467.129 191.237 466.013 192.474C464.896 193.711 463.115 194.099 461.585 193.439C445.121 186.341 433.696 183.192 419.844 182.334C427.771 194.884 434.264 206.858 438.169 220.46C442.739 236.378 443.696 254.254 439.73 277.657C439.423 279.465 437.896 280.814 436.064 280.894C434.232 280.974 432.593 279.764 432.13 277.989C429.843 269.223 427.6 263.623 425.221 259.607C424.849 258.979 424.471 258.385 424.086 257.821C425.1 277.75 424.231 289.865 418.433 302.725C417.736 304.274 416.114 305.19 414.428 304.99C412.741 304.789 411.38 303.518 411.065 301.849C409.931 295.855 408.788 290.549 407.547 285.764C402.575 266.58 396.031 255.605 381.9 242.515C381.881 242.498 381.862 242.48 381.843 242.462L360.212 221.604C349.992 213.721 342.41 207.933 335.863 204.542C333.608 203.374 331.543 202.527 329.598 201.99C341.457 211.285 349.275 219.116 353.875 226.817C359.741 236.64 360.193 245.921 358.014 256.767C357.708 258.287 356.529 259.481 355.012 259.805C353.495 260.129 351.93 259.52 351.031 258.256C335.294 236.15 316.413 226.018 298.524 219.071C294.029 217.326 289.605 215.785 285.28 214.295C284.893 214.162 284.506 214.029 284.121 213.896L283.953 213.839C280.108 212.516 276.329 211.216 272.735 209.857C268.087 208.099 263.611 206.196 259.504 203.901C261.18 211.811 262.976 218.562 265.623 225.301C269.235 234.5 274.498 243.836 283.426 256.037C284.443 257.428 284.425 259.322 283.38 260.693C282.336 262.063 280.514 262.583 278.903 261.971C266.037 257.077 256.3 251.256 248.385 240.852C242.763 233.462 238.188 223.922 233.92 211.124C230.715 226.633 226.054 238.354 218.793 248.793C209.202 262.582 195.275 273.817 175.235 288.69C174.105 289.529 172.609 289.691 171.325 289.115C170.145 288.586 169.313 287.51 169.088 286.252C169.003 287.011 168.91 287.743 168.808 288.45C167.602 296.781 165.108 301.859 161.145 306.702C160.115 307.961 158.412 308.446 156.873 307.919C155.335 307.392 154.287 305.964 154.245 304.338C154.137 300.124 153.796 296.709 152.947 293.594C155.911 318.564 154.653 338.803 144.6 362.552C143.892 364.223 142.123 365.183 140.337 364.866C138.55 364.548 137.22 363.038 137.132 361.225C136.375 345.714 132.802 334.81 126.653 327.448C120.571 320.167 111.51 315.808 98.5614 314.328C91.0965 313.475 83.5001 315.779 78.7532 323.043C78.5338 323.379 78.3194 323.726 78.1104 324.086C77.3689 325.364 75.9676 326.112 74.4933 326.016C73.0191 325.92 71.7264 324.997 71.1566 323.634C69.2811 319.148 67.329 314.635 65.386 310.144L65.3854 310.143C62.1734 302.718 58.9863 295.351 56.2117 288.254C51.7327 276.798 48.1181 265.548 46.8997 254.886C43.4173 224.411 49.3725 198.018 63.7827 177.245C75.9881 159.651 94.0737 146.356 117.029 138.006C115.106 137.977 113.033 138.094 110.792 138.353C102.937 139.26 93.5484 141.841 82.2612 145.344C80.6213 145.853 78.8417 145.227 77.8822 143.803C76.9226 142.379 77.01 140.494 78.0973 139.165C85.0715 130.641 91.0897 123.434 101.978 119.229C111.762 115.451 125.117 114.219 146.183 115.536C144.899 114.368 142.842 113.145 139.717 111.883C132.684 109.042 121.832 106.595 106.76 103.421C105.227 103.098 104.038 101.888 103.742 100.35C103.445 98.812 104.1 97.2464 105.404 96.3776C121.03 85.9602 135.955 81.2144 149.827 82.815C160.553 84.0526 170.216 89.033 178.738 97.3746C179.717 89.0262 183.439 80.8825 188.908 73.4963C196.903 62.6991 208.857 53.1756 222.528 46.3404C224.205 45.5019 226.241 45.979 227.372 47.4752Z" fill="black"/>
</svg>
